<svg xmlns="http://www.w3.org/2000/svg" version="1.1" width="512px" height="512px" style="shape-rendering:geometricPrecision; text-rendering:geometricPrecision; image-rendering:optimizeQuality; fill-rule:evenodd; clip-rule:evenodd" xmlns:xlink="http://www.w3.org/1999/xlink">
<g><path style="opacity:0.999" fill="#b90000" d="M 304.5,81.5 C 304.062,81.4346 303.728,81.6012 303.5,82C 304.416,82.3742 305.25,82.8742 306,83.5C 306.399,83.2716 306.565,82.9382 306.5,82.5C 321.597,89.4697 335.097,98.8031 347,110.5C 355.544,100.958 363.71,91.1252 371.5,81C 377.491,80.5005 383.491,80.3338 389.5,80.5C 389.667,160.167 389.5,239.834 389,319.5C 383.599,366.672 360.433,402.005 319.5,425.5C 319.44,424.957 319.107,424.624 318.5,424.5C 316.142,425.154 314.475,426.487 313.5,428.5C 313.167,428.5 312.833,428.5 312.5,428.5C 312.565,428.062 312.399,427.728 312,427.5C 310.581,428.46 309.081,429.293 307.5,430C 307.728,430.399 308.062,430.565 308.5,430.5C 296.559,436.155 283.892,439.655 270.5,441C 254.17,441.5 237.837,441.667 221.5,441.5C 221.5,418.833 221.5,396.167 221.5,373.5C 234.834,374.064 248.167,374.23 261.5,374C 285.299,372.615 302.632,361.448 313.5,340.5C 315.119,339.042 316.452,336.708 317.5,333.5C 317.376,332.893 317.043,332.56 316.5,332.5C 316.833,331.167 317.167,329.833 317.5,328.5C 318.8,327.399 319.3,326.066 319,324.5C 317.519,325.471 316.685,326.804 316.5,328.5C 315.352,330.755 313.686,332.588 311.5,334C 298.441,341.241 284.441,345.241 269.5,346C 228.637,349.766 192.97,338.266 162.5,311.5C 162.938,311.565 163.272,311.399 163.5,311C 162.333,309.833 161.167,308.667 160,307.5C 159.601,307.728 159.435,308.062 159.5,308.5C 156.129,305.129 153.129,301.463 150.5,297.5C 150.631,296.761 150.464,296.094 150,295.5C 149.31,294.262 148.81,294.262 148.5,295.5C 134.656,276.833 126.156,255.833 123,232.5C 116.291,184.809 129.124,143.476 161.5,108.5C 163.544,107.969 165.211,106.802 166.5,105C 166.272,104.601 165.938,104.435 165.5,104.5C 176.503,93.9912 189.17,85.9912 203.5,80.5C 203.435,80.9382 203.601,81.2716 204,81.5C 206.633,80.2475 209.133,78.9142 211.5,77.5C 243.053,65.7168 274.053,67.0501 304.5,81.5 Z M 296.5,153.5 C 298.5,156.167 300.833,158.5 303.5,160.5C 303.932,161.71 304.599,162.71 305.5,163.5C 306.167,164.5 306.833,165.5 307.5,166.5C 308.864,168.191 310.197,169.858 311.5,171.5C 311.557,172.609 311.89,173.609 312.5,174.5C 324.455,196.851 324.455,219.184 312.5,241.5C 311.89,242.391 311.557,243.391 311.5,244.5C 301.027,260.566 286.693,271.566 268.5,277.5C 265.763,277.401 263.096,277.735 260.5,278.5C 229.038,279.202 207.205,265.202 195,236.5C 188.864,216.737 189.031,197.07 195.5,177.5C 196.305,175.085 197.305,172.751 198.5,170.5C 201.634,164.41 205.634,158.91 210.5,154C 215.887,149.648 221.553,145.815 227.5,142.5C 229.965,142.233 232.299,141.566 234.5,140.5C 257.538,133.892 278.205,138.226 296.5,153.5 Z"/></g>
<g><path style="opacity:0.992" fill="#380501" d="M 211.5,77.5 C 209.133,78.9142 206.633,80.2475 204,81.5C 203.601,81.2716 203.435,80.9382 203.5,80.5C 205.792,78.7329 208.458,77.7329 211.5,77.5 Z"/></g>
<g><path style="opacity:0.469" fill="#150000" d="M 304.5,81.5 C 305.492,81.3284 306.158,81.6618 306.5,82.5C 306.565,82.9382 306.399,83.2716 306,83.5C 305.25,82.8742 304.416,82.3742 303.5,82C 303.728,81.6012 304.062,81.4346 304.5,81.5 Z"/></g>
<g><path style="opacity:0.729" fill="#5b0506" d="M 165.5,104.5 C 165.938,104.435 166.272,104.601 166.5,105C 165.211,106.802 163.544,107.969 161.5,108.5C 162.5,106.833 163.833,105.5 165.5,104.5 Z"/></g>
<g><path style="opacity:0.824" fill="#560603" d="M 234.5,140.5 C 232.299,141.566 229.965,142.233 227.5,142.5C 229.22,141.136 231.22,140.136 233.5,139.5C 234.107,139.624 234.44,139.957 234.5,140.5 Z"/></g>
<g><path style="opacity:0.086" fill="#610205" d="M 303.5,160.5 C 300.833,158.5 298.5,156.167 296.5,153.5C 296.435,153.062 296.601,152.728 297,152.5C 299.782,154.771 301.949,157.437 303.5,160.5 Z"/></g>
<g><path style="opacity:0.184" fill="#2a0200" d="M 307.5,166.5 C 306.833,165.5 306.167,164.5 305.5,163.5C 306.329,162.668 307.162,163.001 308,164.5C 308.692,165.437 308.525,166.103 307.5,166.5 Z"/></g>
<g><path style="opacity:0.169" fill="#5e0504" d="M 198.5,170.5 C 197.305,172.751 196.305,175.085 195.5,177.5C 194.957,177.44 194.624,177.107 194.5,176.5C 195.098,175.205 195.598,173.872 196,172.5C 196.417,171.244 197.25,170.577 198.5,170.5 Z"/></g>
<g><path style="opacity:0.467" fill="#2a0300" d="M 312.5,174.5 C 311.89,173.609 311.557,172.609 311.5,171.5C 311.435,171.062 311.601,170.728 312,170.5C 313.298,171.946 313.465,173.279 312.5,174.5 Z"/></g>
<g><path style="opacity:0.945" fill="#240300" d="M 312.5,241.5 C 313.465,242.721 313.298,244.054 312,245.5C 311.601,245.272 311.435,244.938 311.5,244.5C 311.557,243.391 311.89,242.391 312.5,241.5 Z"/></g>
<g><path style="opacity:0.643" fill="#420300" d="M 268.5,277.5 C 267.121,278.413 264.955,279.08 262,279.5C 261.235,279.43 260.735,279.097 260.5,278.5C 263.096,277.735 265.763,277.401 268.5,277.5 Z"/></g>
<g><path style="opacity:0.184" fill="#390100" d="M 150.5,297.5 C 149.5,297.167 148.833,296.5 148.5,295.5C 148.81,294.262 149.31,294.262 150,295.5C 150.464,296.094 150.631,296.761 150.5,297.5 Z"/></g>
<g><path style="opacity:0.039" fill="#350701" d="M 162.5,311.5 C 161.167,310.833 160.167,309.833 159.5,308.5C 159.435,308.062 159.601,307.728 160,307.5C 161.167,308.667 162.333,309.833 163.5,311C 163.272,311.399 162.938,311.565 162.5,311.5 Z"/></g>
<g><path style="opacity:0.259" fill="#2b0200" d="M 317.5,328.5 C 317.167,328.5 316.833,328.5 316.5,328.5C 316.685,326.804 317.519,325.471 319,324.5C 319.3,326.066 318.8,327.399 317.5,328.5 Z"/></g>
<g><path style="opacity:0.992" fill="#380500" d="M 316.5,332.5 C 317.043,332.56 317.376,332.893 317.5,333.5C 316.452,336.708 315.119,339.042 313.5,340.5C 314.108,337.673 315.108,335.007 316.5,332.5 Z"/></g>
<g><path style="opacity:0.586" fill="#480102" d="M 319.5,425.5 C 317.5,426.5 315.5,427.5 313.5,428.5C 314.475,426.487 316.142,425.154 318.5,424.5C 319.107,424.624 319.44,424.957 319.5,425.5 Z"/></g>
<g><path style="opacity:0.569" fill="#330901" d="M 312.5,428.5 C 311.486,429.674 310.153,430.34 308.5,430.5C 308.062,430.565 307.728,430.399 307.5,430C 309.081,429.293 310.581,428.46 312,427.5C 312.399,427.728 312.565,428.062 312.5,428.5 Z"/></g>
</svg>
